<?xml version="1.0" encoding="utf-8"?>
<!-- Generator: Adobe Illustrator 21.1.0, SVG Export Plug-In . SVG Version: 6.00 Build 0)  -->
<svg version="1.1" id="Layer_1" xmlns="http://www.w3.org/2000/svg" xmlns:xlink="http://www.w3.org/1999/xlink" x="0px" y="0px"
	 viewBox="0 0 252.8 99.1" style="enable-background:new 0 0 252.8 99.1;" xml:space="preserve">
<style type="text/css">
	.st0{fill:#2A79B4;}
	.st1{fill:#233F66;}
	.st2{fill:none;}
</style>
<g>
	<path class="st0" d="M236.3,66.2V53.1c0-2.6-0.5-4.5-1.4-5.8c-1-1.2-2.5-1.9-4.5-1.9c-2.1,0-3.6,0.6-4.6,1.9
		c-1,1.3-1.5,3.2-1.5,5.7v13.1h-4.4V53.1c0-2.6-0.5-4.5-1.5-5.7c-1-1.3-2.5-1.9-4.6-1.9c-2.1,0-3.6,0.6-4.6,1.9
		c-1,1.2-1.4,3.2-1.4,5.8v13.1h-4.4V52.7c0-3.6,0.9-6.3,2.6-8.3c1.8-1.9,4.3-2.9,7.7-2.9c2,0,3.7,0.4,5.1,1.1
		c1.4,0.7,2.4,1.8,3.2,3.3c1.5-2.9,4.3-4.4,8.3-4.4c3.4,0,5.9,1,7.7,2.9c1.8,1.9,2.7,4.7,2.7,8.3v13.5H236.3z"/>
	<path class="st0" d="M81.7,40v24.4h-4.2v-3.9c-1,1.3-2.2,2.4-3.7,3.1c-1.5,0.7-3.2,1.1-5,1.1c-2.4,0-4.5-0.5-6.3-1.6
		c-1.9-1-3.3-2.5-4.4-4.4c-1.1-1.9-1.6-4.1-1.6-6.5c0-2.5,0.5-4.6,1.6-6.5c1.1-1.9,2.5-3.3,4.4-4.4c1.9-1,4-1.6,6.3-1.6
		c1.7,0,3.4,0.3,4.8,1c1.5,0.7,2.7,1.6,3.7,2.9V40H81.7z M73.3,59.7c1.3-0.7,2.2-1.7,2.9-3c0.7-1.3,1.1-2.8,1.1-4.5
		c0-1.7-0.4-3.2-1.1-4.5c-0.7-1.3-1.7-2.3-2.9-3c-1.3-0.7-2.7-1.1-4.2-1.1c-1.6,0-3,0.4-4.2,1.1c-1.2,0.7-2.2,1.7-2.9,3
		c-0.7,1.3-1.1,2.8-1.1,4.5c0,1.7,0.4,3.2,1.1,4.5c0.7,1.3,1.7,2.3,2.9,3c1.2,0.7,2.6,1.1,4.2,1.1C70.7,60.8,72.1,60.4,73.3,59.7z"
		/>
	<path class="st0" d="M110.4,42.4c1.8,1.8,2.7,4.4,2.7,7.9v14h-4.4V50.8c0-2.4-0.6-4.1-1.7-5.3c-1.1-1.2-2.8-1.8-4.9-1.8
		c-2.4,0-4.3,0.7-5.7,2.1s-2.1,3.4-2.1,6v12.6H90V40h4.2v3.7c0.9-1.3,2.1-2.2,3.6-2.9c1.5-0.7,3.2-1,5.2-1
		C106.1,39.7,108.5,40.6,110.4,42.4z"/>
	<path class="st0" d="M132.9,62.9c-0.6,0.6-1.4,1-2.4,1.3c-1,0.3-1.9,0.4-2.9,0.4c-2.5,0-4.4-0.7-5.7-2c-1.3-1.3-2-3.2-2-5.7V34.6
		h4.4V40h7v3.6h-7v13.2c0,1.3,0.3,2.3,1,3c0.7,0.7,1.6,1.1,2.8,1.1c1.3,0,2.5-0.4,3.4-1.1L132.9,62.9z"/>
	<path class="st0" d="M144,39.4v2.1h7.1v3.6h-7v20.7h-4.4V39.4c0-2.4,0.7-4.3,2.1-5.7c1.4-1.4,3.4-2.1,5.9-2.1c1,0,1.9,0.1,2.8,0.4
		c0.9,0.2,1.6,0.6,2.2,1.1l-1.3,3.4c-1-0.8-2.1-1.1-3.4-1.1C145.3,35.2,144,36.6,144,39.4z"/>
	<path class="st0" d="M165.4,42.4c1.5-0.7,3.3-1.1,5.5-1.1v4.3c-0.2,0-0.6,0-1,0c-2.4,0-4.3,0.7-5.6,2.1c-1.4,1.4-2,3.5-2,6.1v12.1
		h-4.4V41.6h4.2v4.1C162.7,44.2,163.9,43.2,165.4,42.4z"/>
	<path class="st0" d="M178.8,64.6c-1.9-1.1-3.4-2.6-4.5-4.4c-1.1-1.9-1.6-4-1.6-6.4c0-2.4,0.5-4.5,1.6-6.4c1.1-1.9,2.6-3.4,4.5-4.4
		c1.9-1.1,4.1-1.6,6.5-1.6c2.4,0,4.6,0.5,6.5,1.6c1.9,1.1,3.4,2.5,4.5,4.4c1.1,1.9,1.6,4,1.6,6.4c0,2.4-0.5,4.5-1.6,6.4
		c-1.1,1.9-2.6,3.4-4.5,4.4c-1.9,1.1-4.1,1.6-6.5,1.6C182.9,66.2,180.7,65.7,178.8,64.6z M189.5,61.3c1.2-0.7,2.2-1.7,2.9-3
		c0.7-1.3,1.1-2.8,1.1-4.5c0-1.7-0.4-3.2-1.1-4.5c-0.7-1.3-1.7-2.3-2.9-3c-1.2-0.7-2.6-1.1-4.2-1.1c-1.6,0-3,0.4-4.2,1.1
		c-1.2,0.7-2.2,1.7-2.9,3c-0.7,1.3-1.1,2.8-1.1,4.5c0,1.7,0.4,3.2,1.1,4.5c0.7,1.3,1.7,2.3,2.9,3c1.2,0.7,2.6,1.1,4.2,1.1
		C186.8,62.3,188.3,62,189.5,61.3z"/>
	<circle class="st1" cx="42.8" cy="72.2" r="3.6"/>
	<circle class="st1" cx="23.7" cy="72.2" r="3.6"/>
	<g>
		<path class="st1" d="M51.8,39.2v13.5c0,3.6-0.9,6.3-2.7,8.3c-1.8,1.9-4.4,2.9-7.7,2.9c-4,0-6.7-1.5-8.3-4.4
			c-0.8,1.5-1.9,2.6-3.2,3.3c-1.4,0.7-3.1,1.1-5.1,1.1c-3.4,0-6-1-7.7-2.9c-1.8-1.9-2.6-4.7-2.6-8.3l3.8-0.4c0,2.6,1.1,4.5,2.1,5.7
			c0.9,1.2,2.5,1.9,4.6,1.9c2.1,0,3.6-0.6,4.6-1.9c1-1.3,1.5-3.2,1.5-5.7V39.2h4.4v13.1c0,2.6,0.5,4.5,1.5,5.7
			c1,1.3,2.5,1.9,4.6,1.9c2.1,0,3.6-0.6,4.5-1.9c0.9-1.2,1.4-3.2,1.4-5.8V39.2H51.8z"/>
		<g>
			<path class="st1" d="M16.1,57.7c-0.7-0.6-1.2-1.3-1.6-2.1c-0.4-0.9-0.7-2-0.7-3.2l-1.8-26.9l4.4-0.3l1.8,26.5c0,0.3,0,0.8,0,1.4
				c-0.1,1.7-0.3,4.2,0.7,4.1c0.8-0.1,1.8,2,0.7,2.1C17.2,59.4,17.5,58.9,16.1,57.7z"/>
		</g>
		<path class="st1" d="M14.7,55.6c0.3,1.1,0.6,2.2,0.6,2.2s-1.1-1.6-1.3-4.9l1.8-4"/>
	</g>
</g>
<rect class="st2" width="252.8" height="99.1"/>
</svg>
